<svg width="1427" height="1025" viewBox="0 0 1427 1025" fill="none" xmlns="http://www.w3.org/2000/svg">
<path fill-rule="evenodd" clip-rule="evenodd" d="M1068.73 1022.71C1064.55 1021.48 1060.15 1020.75 1055.52 1020.51C959.505 1006.73 886.351 958.708 836.061 876.435C819.081 847.68 806.064 817.251 797.009 785.15C797.108 782.233 796.376 779.668 794.809 777.451C789.242 758.465 785.208 739.035 782.708 719.161C782.25 716.325 782.983 713.942 784.908 712.013C783.866 711.481 782.766 711.299 781.608 711.463C781.94 708.648 781.573 706.081 780.508 703.764C766.074 521.454 812.827 356.85 920.766 209.949C991.916 115.145 1082.31 45.4938 1191.93 0.984414C1218.12 9.32099 1230.03 27.2809 1227.68 54.8752C1226.1 60.2532 1223.9 65.3893 1221.08 70.2725C1182.37 102.376 1145.7 136.844 1111.08 173.655C1072.31 215.58 1041.51 262.872 1018.67 315.531C1003.4 354.772 996.983 395.465 999.421 437.61C1062.8 417.329 1126.97 414.58 1191.93 429.361C1300.12 459.078 1374.01 526.351 1413.6 631.177C1448.73 761.504 1414.81 869.836 1311.84 956.171C1239.71 1009.8 1158.67 1031.98 1068.73 1022.71Z" fill="black"/>
<path fill-rule="evenodd" clip-rule="evenodd" d="M413.086 2.07942C416.023 2.44236 418.949 2.81625 421.886 3.17919C444.9 13.2205 454.613 30.8175 451.038 55.9702C449.806 63.02 446.682 69.0689 441.688 74.1171C381.481 121.849 328.854 176.653 283.828 238.539C262.96 269.631 246.459 302.988 234.325 338.622C229.903 353.766 226.79 369.164 224.975 384.814C223.061 390.005 222.335 395.504 222.775 401.311C222.478 413.453 222.852 425.551 223.875 437.605C270.407 422.273 318.073 416.774 366.883 421.108C372.13 422.636 377.631 423.373 383.384 423.307C486.691 440.31 564.609 493.837 617.148 583.88C642.9 633.1 654.452 685.524 651.8 741.153C650.282 747.14 649.545 753.373 649.6 759.85C634.793 851.623 588.59 922.929 510.992 973.763C475.46 996.298 436.957 1011.15 395.485 1018.31C390.039 1018.6 384.902 1019.7 380.084 1021.6C378.984 1021.6 377.884 1021.6 376.784 1021.6C371.008 1021.39 365.508 1022.12 360.283 1023.8C282.915 1029.94 211.774 1012.16 146.87 970.464C92.7469 930.638 54.0686 879.131 30.8132 815.94C6.36974 746.929 -3.53085 675.808 1.11142 602.577C13.1571 434.492 74.3978 287.492 184.822 161.552C248.989 91.4281 325.081 38.2742 413.086 2.07942Z" fill="black"/>
</svg>
