<svg width="161" height="61" viewBox="0 0 161 61" fill="none" xmlns="http://www.w3.org/2000/svg">
<path fill-rule="evenodd" clip-rule="evenodd" d="M104 0C106 0 108 0 110 0C125.01 3.02193 129.844 11.6886 124.5 26C120.829 29.5773 116.662 32.2439 112 34C108.333 34 104.668 34 101.001 34C100.668 34 100.334 34 100.001 34C87.0006 34 74.0006 34 61.0006 34C60.6673 34 60.3339 34 60.0006 34C56.0006 34 52 34 48 34C44.3075 32.0623 40.8075 29.7289 37.5 27C30.3908 13.9665 33.8908 5.29987 48 1C53.6052 0.408139 58.9386 1.24147 64 3.5C69.6221 10.9112 75.1221 18.4112 80.5 26C84.9962 20.3441 88.9962 14.3441 92.5 8C95.6496 4.18926 99.483 1.5226 104 0Z" fill="#C0392A"/>
<path fill-rule="evenodd" clip-rule="evenodd" d="M68.0007 24.0009C62.1907 24.9905 56.1907 25.3238 50.0007 25.0009C43.9508 23.2413 41.7842 19.2413 43.5007 13.0009C47.9202 7.60504 53.0868 6.77171 59.0007 10.5009C62.2227 14.8827 65.2227 19.3827 68.0007 24.0009Z" fill="white"/>
<path fill-rule="evenodd" clip-rule="evenodd" d="M111 24.9993C104.81 25.3222 98.81 24.9889 93 23.9993C95.2755 19.8838 97.7755 15.8838 100.5 11.9993C106.495 6.41224 112.162 6.74558 117.5 12.9993C119.217 19.2397 117.05 23.2397 111 24.9993Z" fill="white"/>
<path fill-rule="evenodd" clip-rule="evenodd" d="M68 24C68.5431 24.06 68.8764 24.3933 69 25C62.5117 26.3174 56.1783 26.3174 50 25C56.19 25.3229 62.19 24.9896 68 24Z" fill="#CE756E"/>
<path fill-rule="evenodd" clip-rule="evenodd" d="M93 23.9993C98.81 24.9889 104.81 25.3222 111 24.9993C104.822 26.3167 98.4883 26.3174 92 25C92.1236 24.3933 92.4569 24.0593 93 23.9993Z" fill="#CF7770"/>
<path fill-rule="evenodd" clip-rule="evenodd" d="M48 34C52 34 56.0006 34 60.0006 34C60.0006 43 60 52 60 61C42.3333 61 24.6667 61 7 61C4.66667 61 2.33333 61 0 61C0 55.3333 0 49.6667 0 44C1.50639 39.5381 4.50639 36.3714 9 34.5C21.9957 34.0001 34.9957 33.8334 48 34Z" fill="#F0C312"/>
<path fill-rule="evenodd" clip-rule="evenodd" d="M61.0006 34C74.0006 34 87.0006 34 100.001 34C100.001 43 100 52 100 61C87 61 74 61 61 61C61 52 61.0006 43 61.0006 34Z" fill="#E64B3B"/>
<path fill-rule="evenodd" clip-rule="evenodd" d="M101.001 34C104.668 34 108.333 34 112 34C125.337 33.8334 138.671 34.0001 152 34.5C156.494 36.3714 159.494 39.5381 161 44C161 49.6667 161 55.3333 161 61C158.667 61 156.333 61 154 61C136.333 61 118.667 61 101 61C101 52 101.001 43 101.001 34Z" fill="#F0C312"/>
<path d="M60.0006 34H61.0006L61 61L60 61L60.0006 34Z" fill="#E57D23"/>
<path d="M100.001 34H101.001L101 61L100 61L100.001 34Z" fill="#E57D23"/>
</svg>
